<?xml version="1.0" encoding="UTF-8"?>
<svg version="1.1" xmlns="http://www.w3.org/2000/svg" xmlns:xlink="http://www.w3.org/1999/xlink">
<defs>

</defs>
<symbol id="i-add" viewBox="0 0 21 20" xmlns="http://www.w3.org/2000/svg"><path d="M10.5 5.757V10m0 0v4.243m0-4.243h4.243m-4.242 0H6.258"/><rect x="1.5" y="1" width="18" height="18" rx="5"/></symbol>
<symbol id="i-apps" viewBox="0 0 24 24" xmlns="http://www.w3.org/2000/svg"><rect x="2" y="2" width="9" height="9" rx="2"/><rect x="13" y="2" width="9" height="9" rx="2"/><rect x="13" y="13" width="9" height="9" rx="2"/><rect x="2" y="13" width="9" height="9" rx="2"/></symbol>
<symbol id="i-arrowdown" viewBox="0 0 11 7" xmlns="http://www.w3.org/2000/svg"><path d="M1.5 1l4 4 4-4"/></symbol>
<symbol id="i-arrownew" viewBox="0 0 8 12" xmlns="http://www.w3.org/2000/svg"><path d="M1 11l5-5-5-5"/></symbol>
<symbol id="i-arrowright" viewBox="0 0 9 14" xmlns="http://www.w3.org/2000/svg"><path d="M1 13l6-6-6-6"/></symbol>
<symbol id="i-back" viewBox="0 0 13 12" xmlns="http://www.w3.org/2000/svg"><path d="M6 1L1.707 5.293a1 1 0 000 1.414L6 11M1.75 5.963h10.5"/></symbol>
<symbol id="i-bell" viewBox="0 0 24 24" xmlns="http://www.w3.org/2000/svg"><path d="M14 21h-4"/><path fill-rule="evenodd" clip-rule="evenodd" d="M17.714 9.855v-.037C17.714 6.605 15.155 4 12 4 8.845 4 6.286 6.605 6.286 9.818v2.913c0 .377-.21.72-.54.89l-.575.291A2.165 2.165 0 004 15.842C4 17.035 4.949 18 6.119 18H17.88c1.17 0 2.119-.966 2.119-2.157 0-.817-.454-1.564-1.171-1.93l-.575-.292a1 1 0 01-.54-.89V9.855z"/></symbol>
<symbol id="i-burger" viewBox="0 0 15 12" xmlns="http://www.w3.org/2000/svg"><path d="M1 1h13M1 6h13M1 11h13"/></symbol>
<symbol id="i-call" viewBox="0 0 13 13" xmlns="http://www.w3.org/2000/svg"><path fill-rule="evenodd" clip-rule="evenodd" d="M7.776 1.088a.462.462 0 00-.514.412.466.466 0 00.41.514 3.744 3.744 0 013.319 3.325.464.464 0 10.923-.104 4.667 4.667 0 00-4.138-4.147zm.034 1.886a.467.467 0 00-.177.915 1.875 1.875 0 011.486 1.49.465.465 0 10.912-.179A2.803 2.803 0 007.81 2.974zm.857 5.2c.244-.14.52-.3.869-.226.316.067 1.391.94 1.686 1.242.193.198.3.403.317.608.03.802-1.062 1.719-1.26 1.833a1.53 1.53 0 01-.916.286c-.352 0-.745-.1-1.173-.3-2.324-.97-5.874-4.45-6.813-6.756-.389-.858-.392-1.566-.006-2.099.154-.25 1.03-1.292 1.815-1.26.209.019.412.126.61.32.302.296 1.153 1.375 1.219 1.691.073.352-.087.632-.229.878a4.16 4.16 0 01-.115.184c-.17.26-.396.607-.316.829.573 1.405 1.895 2.631 3.3 3.207.218.08.565-.148.824-.318.068-.045.13-.085.182-.115l.006-.004z"/></symbol>
<symbol id="i-camera" viewBox="0 0 24 24" xmlns="http://www.w3.org/2000/svg"><path fill-rule="evenodd" clip-rule="evenodd" d="M17.44 6.236c.04.07.11.12.2.12 2.4 0 4.36 1.958 4.36 4.355v5.934A4.368 4.368 0 0117.64 21H6.36A4.361 4.361 0 012 16.645V10.71a4.361 4.361 0 014.36-4.355c.08 0 .16-.04.19-.12l.06-.12.106-.222a97.79 97.79 0 01.714-1.486C7.89 3.51 8.67 3.01 9.64 3h4.71c.97.01 1.76.51 2.22 1.408.157.315.397.822.629 1.31l.141.299.1.22zm-.73 3.836c0 .5.4.9.9.9s.91-.4.91-.9-.41-.909-.91-.909-.9.41-.9.91zm-6.44 1.548c.47-.469 1.08-.719 1.73-.719.65 0 1.26.25 1.72.71.46.459.71 1.068.71 1.717A2.438 2.438 0 0112 15.756c-.65 0-1.26-.25-1.72-.71a2.408 2.408 0 01-.71-1.717v-.01c-.01-.63.24-1.24.7-1.699zm4.5 4.485a3.93 3.93 0 01-5.55 0 3.922 3.922 0 01-1.15-2.777 3.865 3.865 0 011.14-2.766A3.922 3.922 0 0112 9.402c1.05 0 2.04.41 2.78 1.15.74.749 1.15 1.738 1.15 2.777a3.958 3.958 0 01-1.16 2.776z"/></symbol>
<symbol id="i-category" viewBox="0 0 18 18" xmlns="http://www.w3.org/2000/svg"><path fill-rule="evenodd" clip-rule="evenodd" d="M3.405.75A2.666 2.666 0 00.75 3.42v2.558a2.66 2.66 0 002.655 2.67H5.94a2.656 2.656 0 002.655-2.67V3.42A2.661 2.661 0 005.94.75H3.405zM2.25 3.42c0-.65.525-1.17 1.155-1.17H5.94c.635 0 1.155.519 1.155 1.17v2.558c0 .656-.517 1.17-1.155 1.17H3.405a1.161 1.161 0 01-1.155-1.17V3.42zm1.155 5.932A2.662 2.662 0 00.75 12.023v2.557a2.666 2.666 0 002.655 2.67H5.94a2.66 2.66 0 002.655-2.67v-2.557a2.657 2.657 0 00-2.655-2.67H3.405zM2.25 12.023c0-.655.523-1.17 1.155-1.17H5.94c.637 0 1.155.513 1.155 1.17v2.557c0 .65-.52 1.17-1.155 1.17H3.405c-.63 0-1.155-.521-1.155-1.17v-2.557zm7.155-8.602A2.661 2.661 0 0112.06.75h2.535a2.666 2.666 0 012.655 2.67v2.558a2.661 2.661 0 01-2.655 2.67H12.06a2.656 2.656 0 01-2.655-2.67V3.42zM12.06 2.25c-.635 0-1.155.519-1.155 1.17v2.558c0 .656.518 1.17 1.155 1.17h2.535c.632 0 1.155-.516 1.155-1.17V3.42c0-.65-.525-1.171-1.155-1.171H12.06zm0 7.102a2.657 2.657 0 00-2.655 2.671v2.557a2.66 2.66 0 002.655 2.67h2.535a2.666 2.666 0 002.655-2.67v-2.557a2.662 2.662 0 00-2.655-2.67H12.06zm-1.155 2.671c0-.657.518-1.17 1.155-1.17h2.535c.632 0 1.155.515 1.155 1.17v2.557c0 .649-.525 1.17-1.155 1.17H12.06c-.636 0-1.155-.52-1.155-1.17v-2.557z"/></symbol>
<symbol id="i-chart" xmlns="http://www.w3.org/2000/svg" viewBox="0 0 20 20"><g><path d="M6.5 8.7v5.1M10 6.2v7.6M13.5 11.4v2.4M13.5 2.5h-7c-2.4 0-4 1.7-4 4.2v6.6c0 2.5 1.5 4.2 4 4.2h7c2.5 0 4-1.7 4-4.2V6.7c0-2.5-1.5-4.2-4-4.2z"/></g></symbol>
<symbol id="i-chat" viewBox="0 0 24 24" xmlns="http://www.w3.org/2000/svg"><path fill-rule="evenodd" clip-rule="evenodd" d="M2 12.015C2 6.747 6.21 2 12.02 2 17.7 2 22 6.657 22 11.985 22 18.165 16.96 22 12 22c-1.64 0-3.46-.44-4.92-1.302-.51-.31-.94-.54-1.49-.36l-2.02.6c-.51.16-.97-.24-.82-.78l.67-2.244c.11-.31.09-.641-.07-.902C2.49 15.43 2 13.697 2 12.015zm8.7 0c0 .711.57 1.282 1.28 1.292.71 0 1.28-.58 1.28-1.282 0-.711-.57-1.282-1.28-1.282-.7-.01-1.28.571-1.28 1.272zm4.61.01c0 .701.57 1.282 1.28 1.282.71 0 1.28-.58 1.28-1.282 0-.711-.57-1.282-1.28-1.282-.71 0-1.28.571-1.28 1.282zm-7.94 1.282c-.7 0-1.28-.58-1.28-1.282 0-.711.57-1.282 1.28-1.282.71 0 1.28.571 1.28 1.282a1.29 1.29 0 01-1.28 1.282z"/></symbol>
<symbol id="i-chatborder" viewBox="0 0 20 20" xmlns="http://www.w3.org/2000/svg"><path clip-rule="evenodd" d="M8.542 16.005l-3.043 1.506v-2.748C3.683 13.523 2.5 11.554 2.5 9.318 2.5 5.536 5.873 2.5 10 2.5s7.5 3.036 7.5 6.818c0 3.783-3.373 6.819-7.5 6.819-.5 0-.986-.047-1.458-.132z"/></symbol>
<symbol id="i-chatting" viewBox="0 0 14 12" xmlns="http://www.w3.org/2000/svg"><path fill-rule="evenodd" clip-rule="evenodd" d="M2.261.52C1.455.625.763 1.207.554 1.96.507 2.13.5 2.704.5 6.652c0 4.43.001 4.5.07 4.606a.57.57 0 00.723.178c.058-.033.747-.49 1.532-1.017 1.592-1.067 1.543-1.035 1.762-1.123.152-.061.303-.064 3.734-.08l3.766-.017c.168 0 .348-.034.504-.098.544-.223.876-.753.884-1.341.011-.86.025-2.194.025-3.567V1.12a.63.63 0 00-.179-.448.59.59 0 00-.427-.167L7.8.5C4.859.498 2.368.507 2.26.52zm8.142 2.787a.463.463 0 01-.052.83c-.109.049-.157.054-3.005.054-3.015 0-3.171-.003-3.288-.061-.143-.072-.28-.276-.281-.418 0-.143.104-.318.242-.405l.12-.075h6.144l.12.075zm0 2.315a.463.463 0 01-.052.83c-.109.048-.157.053-3.005.053-3.015 0-3.171-.002-3.288-.06-.143-.072-.28-.276-.281-.419 0-.143.104-.318.242-.404l.12-.075h6.144l.12.075z"/></symbol>
<symbol id="i-check" viewBox="0 0 9 8" xmlns="http://www.w3.org/2000/svg"><path d="M1 3.765L3.457 6 8 1"/></symbol>
<symbol id="i-checkbig" viewBox="0 0 20 20" xmlns="http://www.w3.org/2000/svg"><path d="M7.938 14.715L3.813 10.59 4.99 9.41l2.948 2.945-.002.001 7.071-7.07 1.179 1.178-7.071 7.071-1.178 1.178z"/></symbol>
<symbol id="i-clip" viewBox="0 0 24 24" xmlns="http://www.w3.org/2000/svg"><path d="M13.88 8.375l-5.487 5.486a2.116 2.116 0 000 2.992v0a2.116 2.116 0 002.992 0l7.232-7.232a3.879 3.879 0 000-5.486v0a3.879 3.879 0 00-5.486 0L5.9 11.367a5.642 5.642 0 000 7.98v0a5.642 5.642 0 007.98 0l4.39-4.389"/></symbol>
<symbol id="i-clock" viewBox="0 0 16 16" xmlns="http://www.w3.org/2000/svg"><path fill-rule="evenodd" clip-rule="evenodd" d="M8 14.667A6.665 6.665 0 011.335 8a6.67 6.67 0 016.667-6.667A6.665 6.665 0 0114.667 8a6.66 6.66 0 01-6.666 6.667zm2.127-4.194a.495.495 0 00.687-.173.502.502 0 00-.173-.687L8.267 8.2V5.12a.5.5 0 10-1 0v3.367a.5.5 0 00.247.426l2.613 1.56z"/></symbol>
<symbol id="i-close" viewBox="0 0 10 9" xmlns="http://www.w3.org/2000/svg"><path d="M2 1.5l6 6m0-6l-6 6"/></symbol>
<symbol id="i-closebig" viewBox="0 0 14 14" xmlns="http://www.w3.org/2000/svg"><path d="M10.47 2.47l-4 4 1.06 1.06 4-4-1.06-1.06zm-4 4l-4 4 1.06 1.06 4-4-1.06-1.06zm5.06 4l-4-4-1.06 1.06 4 4 1.06-1.06zm-4-4l-4-4-1.06 1.06 4 4 1.06-1.06z"/></symbol>
<symbol id="i-closecircle" viewBox="0 0 20 20" xmlns="http://www.w3.org/2000/svg"><path d="M12.357 7.642l-4.716 4.716M12.357 12.358L7.641 7.642"/><path clip-rule="evenodd" d="M10 17.5v0A7.5 7.5 0 012.5 10v0A7.5 7.5 0 0110 2.5v0a7.5 7.5 0 017.5 7.5v0a7.5 7.5 0 01-7.5 7.5z"/></symbol>
<symbol id="i-copy" viewBox="0 0 20 20" xmlns="http://www.w3.org/2000/svg"><rect x="5.832" y="5.832" width="11.671" height="11.671" rx="3"/><path d="M11.667 10v3.335M10 11.667h3.335M5.833 14.168h-.834a2.501 2.501 0 01-2.5-2.5v-6.67a2.501 2.501 0 012.5-2.501h6.67a2.501 2.501 0 012.5 2.5v.834"/></symbol>
<symbol id="i-cross" viewBox="0 0 20 21" xmlns="http://www.w3.org/2000/svg"><path d="M6.667 12.662h6.666M6.667 15.162h6.666M11.042 7.246L8.959 9.329M11.042 9.329L8.959 7.246"/><path clip-rule="evenodd" d="M15.833 18.496H4.167c-.921 0-1.667-.746-1.667-1.667V5.162c0-.92.746-1.666 1.667-1.666h11.666c.921 0 1.667.745 1.667 1.666V16.83c0 .92-.746 1.667-1.667 1.667z"/></symbol>
<symbol id="i-danger" viewBox="0 0 17 18" xmlns="http://www.w3.org/2000/svg"><path fill-rule="evenodd" clip-rule="evenodd" d="M10.255 3.646l5.148 8.936c.114.267.163.484.178.71a1.955 1.955 0 01-.517 1.43 2.01 2.01 0 01-1.381.653H3.314a2.228 2.228 0 01-.644-.14c-1.027-.415-1.523-1.58-1.105-2.59L6.749 3.64c.177-.316.446-.59.78-.765a2.02 2.02 0 012.726.771zm-1.14 5.89a.62.62 0 01-.617.618.627.627 0 01-.623-.619V7.55a.62.62 0 01.623-.611c.34 0 .617.273.617.61v1.986zm-.617 3.018a.626.626 0 01-.623-.617c0-.338.283-.619.623-.619s.617.274.617.61a.622.622 0 01-.617.626z"/></symbol>
<symbol id="i-del" viewBox="0 0 18 18" xmlns="http://www.w3.org/2000/svg"><path d="M17.295 13.892l-4.892-4.89 4.889-4.889c.94-.938.94-2.464 0-3.401a2.398 2.398 0 00-3.401-.003l-4.892 4.89L4.107.702a2.411 2.411 0 00-3.404 0 2.412 2.412 0 000 3.405l4.895 4.894-4.884 4.881c-.94.94-.94 2.467 0 3.402.47.473 1.084.707 1.7.707.618 0 1.231-.234 1.702-.704l4.883-4.884 4.894 4.892a2.41 2.41 0 003.401 0c.941-.94.941-2.464 0-3.404z"/></symbol>
<symbol id="i-delete" viewBox="0 0 20 21" xmlns="http://www.w3.org/2000/svg"><path clip-rule="evenodd" d="M12.952 18.499H7.047c-.98 0-1.795-.755-1.87-1.732l-.804-10.46h11.254l-.804 10.46a1.876 1.876 0 01-1.87 1.732v0z"/><path d="M16.67 6.306H3.33"/><path clip-rule="evenodd" d="M7.655 3.492h4.69c.518 0 .938.42.938.938v1.876H6.717V4.43c0-.518.42-.938.938-.938z"/><path d="M11.641 10.058v4.69M8.358 10.058v4.69"/></symbol>
<symbol id="i-deletebig" viewBox="0 0 24 24" xmlns="http://www.w3.org/2000/svg"><path fill-rule="evenodd" clip-rule="evenodd" d="M20.287 5.243c.39 0 .713.323.713.734v.38a.73.73 0 01-.713.734H3.714A.73.73 0 013 6.357v-.38c0-.411.324-.734.714-.734H6.63c.592 0 1.107-.421 1.24-1.015l.153-.682C8.261 2.617 9.041 2 9.935 2h4.13c.884 0 1.674.617 1.902 1.497l.163.73a1.28 1.28 0 001.241 1.016h2.916zm-1.481 13.891c.304-2.837.837-9.577.837-9.645a.746.746 0 00-.18-.558.726.726 0 00-.524-.234H5.069c-.201 0-.392.087-.524.234a.79.79 0 00-.19.558l.052.647c.142 1.763.538 6.674.794 8.998.18 1.712 1.304 2.788 2.93 2.827 1.256.029 2.55.039 3.873.039 1.245 0 2.51-.01 3.805-.039 1.684-.029 2.806-1.086 2.997-2.827z"/></symbol>
<symbol id="i-dot" viewBox="0 0 5 4" xmlns="http://www.w3.org/2000/svg"><path d="M3.58 3.206a1.48 1.48 0 01-1.106.462c-.439 0-.812-.154-1.12-.462a1.525 1.525 0 01-.462-1.12c0-.439.154-.807.462-1.106a1.525 1.525 0 011.12-.462c.439 0 .807.154 1.106.462.308.299.462.667.462 1.106 0 .439-.154.812-.462 1.12z"/></symbol>
<symbol id="i-dots" viewBox="0 0 12 4" xmlns="http://www.w3.org/2000/svg"><path d="M2.908 2.901c-.25.25-.55.374-.901.374s-.652-.125-.901-.374C.856 2.651.732 2.351.732 2s.119-.652.357-.901c.25-.25.555-.374.918-.374.351 0 .652.125.9.374.25.25.375.55.375.901s-.125.652-.374.901zM6.9 2.901c-.248.25-.549.374-.9.374s-.652-.125-.901-.374c-.25-.25-.374-.55-.374-.901s.119-.652.357-.901c.25-.25.555-.374.918-.374.351 0 .652.125.9.374.25.25.375.55.375.901s-.125.652-.374.901zM10.894 2.901c-.25.25-.55.374-.901.374s-.652-.125-.901-.374c-.25-.25-.374-.55-.374-.901s.119-.652.357-.901c.25-.25.555-.374.918-.374.351 0 .652.125.9.374.25.25.375.55.375.901s-.125.652-.374.901z"/></symbol>
<symbol id="i-dotsrotate" viewBox="0 0 3 12" xmlns="http://www.w3.org/2000/svg"><path d="M.375 2.908C.125 2.658 0 2.358 0 2.007s.124-.652.374-.901c.25-.25.55-.374.9-.374A1.248 1.248 0 012.55 2.007c0 .351-.124.652-.373.9-.25.25-.55.375-.901.375-.352 0-.652-.125-.901-.374zM.375 6.9C.125 6.653 0 6.352 0 6s.124-.652.374-.901c.25-.25.55-.374.9-.374A1.248 1.248 0 012.55 6c0 .351-.124.652-.373.9-.25.25-.55.375-.901.375-.352 0-.652-.125-.901-.374zM.375 10.894c-.25-.25-.374-.55-.374-.901s.124-.652.374-.901c.25-.25.55-.374.9-.374A1.248 1.248 0 012.55 9.993c0 .351-.124.652-.373.9-.25.25-.55.375-.901.375-.352 0-.652-.125-.901-.374z"/></symbol>
<symbol id="i-download" viewBox="0 0 20 20" xmlns="http://www.w3.org/2000/svg"><path d="M15.833 18.333H4.167v-1.666h11.666v1.666zM10 15l-5-5 1.175-1.175 2.991 2.983V1.666h1.667v10.142l2.992-2.983L15 10l-5 5z"/></symbol>
<symbol id="i-duplicate" viewBox="0 0 20 20" xmlns="http://www.w3.org/2000/svg"><path clip-rule="evenodd" d="M5.834 5v6.667a2.5 2.5 0 002.5 2.5h6.667a2.5 2.5 0 002.5-2.5V5A2.5 2.5 0 0015 2.5H8.334a2.5 2.5 0 00-2.5 2.5z"/><path d="M14.167 14.167V15a2.5 2.5 0 01-2.5 2.5H5A2.5 2.5 0 012.5 15V8.334a2.5 2.5 0 012.5-2.5h.833"/></symbol>
<symbol id="i-edit" viewBox="0 0 16 16" xmlns="http://www.w3.org/2000/svg"><path fill-rule="evenodd" clip-rule="evenodd" d="M6.25 13.352l5.858-7.575c.319-.409.432-.88.326-1.362-.092-.437-.36-.852-.764-1.168l-.983-.781c-.856-.68-1.918-.61-2.526.172l-.658.854a.252.252 0 00.043.35l1.697 1.362a.7.7 0 01.22.422.63.63 0 01-.545.696.564.564 0 01-.432-.122L6.74 4.81a.209.209 0 00-.283.035L2.303 10.22c-.268.337-.36.774-.268 1.197l.53 2.3a.267.267 0 00.262.208l2.334-.028c.425-.008.821-.201 1.09-.545zm3.27-.716h3.806c.372 0 .674.306.674.682a.678.678 0 01-.674.682H9.52a.678.678 0 01-.673-.682c0-.376.302-.682.673-.682z"/></symbol>
<symbol id="i-editsmall" viewBox="0 0 18 18" xmlns="http://www.w3.org/2000/svg"><path d="M14.372 6.541l-6.59 8.522a1.578 1.578 0 01-1.225.613l-2.627.032a.3.3 0 01-.294-.234l-.597-2.588a1.6 1.6 0 01.302-1.346l4.672-6.047a.235.235 0 01.318-.04l1.966 1.564a.635.635 0 00.486.137.709.709 0 00.613-.782.786.786 0 00-.247-.476l-1.91-1.532a.284.284 0 01-.048-.394l.74-.96c.685-.879 1.878-.96 2.841-.194l1.107.88c.453.354.756.821.86 1.313.119.541-.009 1.073-.367 1.532z"/></symbol>
<symbol id="i-edittext" viewBox="0 0 24 24" xmlns="http://www.w3.org/2000/svg"><path fill-rule="evenodd" clip-rule="evenodd" d="M9.376 20.028l8.787-11.363c.477-.612.647-1.32.488-2.042-.138-.656-.541-1.28-1.146-1.752L16.03 3.699c-1.284-1.021-2.876-.914-3.789.258l-.986 1.28a.378.378 0 00.063.526l2.547 2.042c.17.162.297.377.33.635a.945.945 0 01-.818 1.042.846.846 0 01-.647-.182l-2.621-2.086a.313.313 0 00-.425.054L3.455 15.33c-.403.505-.541 1.161-.403 1.795l.796 3.451a.4.4 0 00.392.312l3.502-.043a2.104 2.104 0 001.634-.817zm4.904-1.075h5.71c.557 0 1.01.46 1.01 1.024 0 .565-.453 1.023-1.01 1.023h-5.71c-.557 0-1.01-.458-1.01-1.023s.453-1.024 1.01-1.024z"/></symbol>
<symbol id="i-exit" viewBox="0 0 20 20" xmlns="http://www.w3.org/2000/svg"><path d="M4.998 12.501v2.501A2.501 2.501 0 007.5 17.503h7.503a2.501 2.501 0 002.501-2.501V4.998a2.501 2.501 0 00-2.5-2.501H7.498a2.501 2.501 0 00-2.5 2.5V7.5"/><path d="M10 12.501l2.501-2.5L10 7.498M2.497 10h10.004"/></symbol>
<symbol id="i-eye-1" viewBox="0 0 16 16" xmlns="http://www.w3.org/2000/svg"><path d="M10.5 8a2.5 2.5 0 11-5 0 2.5 2.5 0 015 0z"/><path d="M0 8s3-5.5 8-5.5S16 8 16 8s-3 5.5-8 5.5S0 8 0 8zm8 3.5a3.5 3.5 0 100-7 3.5 3.5 0 000 7z"/></symbol>
<symbol id="i-eye" viewBox="0 0 24 24" xmlns="http://www.w3.org/2000/svg"><g><path d="M9.76 14.367a3.123 3.123 0 01-.924-2.23A3.16 3.16 0 0112 8.973c.867 0 1.665.35 2.23.925M15.105 12.699a3.158 3.158 0 01-2.537 2.542"/><path d="M6.655 17.472c-1.587-1.246-2.931-3.066-3.905-5.335.984-2.279 2.337-4.109 3.934-5.365C8.271 5.516 10.102 4.834 12 4.834c1.909 0 3.739.692 5.336 1.957M19.449 8.99a15.359 15.359 0 011.802 3.147c-1.967 4.557-5.443 7.302-9.25 7.302-.863 0-1.714-.14-2.532-.413"/></g></symbol>
<symbol id="i-eyehide" viewBox="0 0 24 24" xmlns="http://www.w3.org/2000/svg"><g><path d="M9.76 14.367a3.123 3.123 0 01-.924-2.23A3.16 3.16 0 0112 8.973c.867 0 1.665.35 2.23.925M15.105 12.699a3.158 3.158 0 01-2.537 2.542"/><path d="M6.655 17.472c-1.587-1.246-2.931-3.066-3.905-5.335.984-2.279 2.337-4.109 3.934-5.365C8.271 5.516 10.102 4.834 12 4.834c1.909 0 3.739.692 5.336 1.957M19.449 8.99a15.359 15.359 0 011.802 3.147c-1.967 4.557-5.443 7.302-9.25 7.302-.863 0-1.714-.14-2.532-.413M19.887 4.25L4.113 20.024"/></g></symbol>
<symbol id="i-eyeshow" viewBox="0 0 20 20" xmlns="http://www.w3.org/2000/svg"><path fill-rule="evenodd" clip-rule="evenodd" d="M6.747 10c0 1.778 1.456 3.224 3.252 3.224 1.789 0 3.244-1.446 3.244-3.224A3.24 3.24 0 0010 6.768 3.241 3.241 0 006.747 10zm8.033-4.962c1.423 1.1 2.634 2.707 3.504 4.72a.607.607 0 010 .476c-1.74 4.025-4.837 6.433-8.285 6.433h-.008c-3.439 0-6.536-2.408-8.276-6.433a.607.607 0 010-.476c1.74-4.025 4.837-6.425 8.276-6.425H10c1.724 0 3.358.598 4.78 1.705zM10 12.01a2.024 2.024 0 002.025-2.012c0-1.115-.91-2.02-2.025-2.02-.097 0-.195.008-.284.024a1.664 1.664 0 01-1.667 1.6h-.04a2.11 2.11 0 00-.041.396c0 1.107.91 2.012 2.032 2.012z"/></symbol>
<symbol id="i-facebook" viewBox="0 0 11 12" xmlns="http://www.w3.org/2000/svg"><path fill-rule="evenodd" clip-rule="evenodd" d="M1.27.663C.69.739.205 1.17.04 1.758c-.038.134-.04.33-.04 4.385s.002 4.252.04 4.385c.12.424.404.77.785.958.317.155.169.146 2.506.154l2.104.008V7.712H4.333L4.26 7.64l-.073-.073-.003-.663c-.004-.756-.004-.754.029-.819.059-.116.092-.123.679-.13l.543-.007v-.655c0-.36.01-.749.023-.864.059-.55.242-.975.559-1.294.186-.188.351-.302.583-.402.369-.16.67-.2 1.49-.2.83 0 .79-.04.79.78 0 .815.036.773-.677.792-.548.014-.655.034-.799.148-.203.161-.225.266-.225 1.056v.64l.798.006.798.007.074.08c.054.059.074.1.074.154 0 .124-.147 1.31-.17 1.37a.29.29 0 01-.08.102c-.056.044-.075.045-.776.045H7.18V11.65l1.297-.009c1.158-.007 1.31-.012 1.426-.046a1.53 1.53 0 001.059-1.066c.037-.133.039-.33.039-4.385 0-4.054-.002-4.251-.04-4.385A1.532 1.532 0 009.902.691C9.78.655 9.554.652 5.586.65 3.283.647 1.341.653 1.27.663z"/></symbol>
<symbol id="i-favorites" viewBox="0 0 24 24" xmlns="http://www.w3.org/2000/svg"><path fill-rule="evenodd" clip-rule="evenodd" d="M15.85 2.5c.631 0 1.261.09 1.86.29 3.691 1.2 5.021 5.25 3.91 8.79a12.728 12.728 0 01-3.009 4.81 38.456 38.456 0 01-6.331 4.96l-.25.15-.26-.16a38.094 38.094 0 01-6.369-4.96 12.933 12.933 0 01-3.011-4.8c-1.13-3.54.2-7.59 3.931-8.81.29-.1.589-.17.889-.21h.12c.281-.04.56-.06.84-.06h.11c.63.02 1.24.13 1.831.33h.059c.04.02.07.04.09.06.221.07.43.15.63.26l.38.17c.092.05.195.124.284.19.056.04.107.077.146.1l.05.03c.085.05.175.102.25.16a6.263 6.263 0 013.85-1.3zm2.66 7.2c.41-.01.76-.34.79-.76v-.12a3.3 3.3 0 00-2.11-3.16.8.8 0 00-1.01.5c-.14.42.08.88.5 1.03.64.24 1.07.87 1.07 1.57v.03a.86.86 0 00.19.62c.14.17.35.27.57.29z"/></symbol>
<symbol id="i-fb" xmlns="http://www.w3.org/2000/svg" viewBox="0 0 20 20"><path d="M12.9 4.2h1.7V1.4c-.3 0-1.3-.1-2.4-.1-2.4 0-4 1.4-4 4.1v2.4H5.4v3.1h2.7v7.8h3.3v-7.8h2.5l.4-3.1h-2.9V5.7c-.1-.9.2-1.5 1.5-1.5z"/></symbol>
<symbol id="i-filter" viewBox="0 0 18 8" xmlns="http://www.w3.org/2000/svg"><path d="M1 .5a1 1 0 100 2v-2zm16 2a1 1 0 100-2v2zm-16 3a1 1 0 000 2v-2zm10 2a1 1 0 100-2v2zm-10-5h16v-2H1v2zm0 5h10v-2H1v2z"/></symbol>
<symbol id="i-filter2" viewBox="0 0 12 11" xmlns="http://www.w3.org/2000/svg"><path d="M2.5 1h9M2.5 5.5h9M2.5 10h9"/><circle cx=".5" cy="1" r=".5"/><circle cx=".5" cy="5.5" r=".5"/><circle cx=".5" cy="10" r=".5"/></symbol>
<symbol id="i-filters" viewBox="0 0 20 20" xmlns="http://www.w3.org/2000/svg"><path d="M12.084 11.25l4.34-4.339a.833.833 0 00.243-.59V4.168a.834.834 0 00-.833-.833H4.167a.834.834 0 00-.833.833v2.155c0 .22.087.433.244.589l4.34 4.34"/><path d="M7.918 11.25v5.207c0 .678.637 1.175 1.294 1.011l2.084-.52c.463-.116.789-.533.789-1.011V11.25"/></symbol>
<symbol id="i-folder" viewBox="0 0 18 18" xmlns="http://www.w3.org/2000/svg"><path clip-rule="evenodd" d="M16.87 12.132c0 2.981-1.757 4.738-4.739 4.738H5.644c-2.99 0-4.747-1.757-4.747-4.739V5.636C.896 2.654 1.992.896 4.974.896h1.665c.6 0 1.163.282 1.522.761l.76 1.012c.36.478.924.76 1.522.76H12.8c2.99 0 4.092 1.522 4.092 4.564l-.023 4.139z"/><path d="M4.882 11.074h7.995"/></symbol>
<symbol id="i-gmail" viewBox="0 0 15 12" xmlns="http://www.w3.org/2000/svg"><path fill-rule="evenodd" clip-rule="evenodd" d="M1.089.69C.58.82.142 1.258.034 1.743c-.045.205-.045 8.606 0 8.812.082.369.408.776.751.94.346.164-.08.155 6.715.155 5.497 0 6.247-.005 6.399-.042.532-.13.97-.57 1.068-1.07.044-.23.044-8.55 0-8.778-.098-.5-.536-.94-1.068-1.07-.152-.037-.9-.042-6.412-.04C2.13.65 1.224.656 1.089.69zm8.835 3.14L7.5 6.108 5.076 3.83 2.653 1.555h9.695L9.924 3.83zM6.747 9.243c.463.249 1.043.249 1.506 0 .09-.048.805-.698 1.978-1.798l1.838-1.721v5.018H2.93V5.723L4.77 7.444c1.174 1.1 1.888 1.75 1.978 1.798z"/></symbol>
<symbol id="i-grid" viewBox="0 0 16 16" xmlns="http://www.w3.org/2000/svg"><rect width="7.2" height="7.2" rx="2"/><rect x="8.8" width="7.2" height="7.2" rx="2"/><rect x="8.8" y="8.8" width="7.2" height="7.2" rx="2"/><rect y="8.8" width="7.2" height="7.2" rx="2"/></symbol>
<symbol id="i-grid2" viewBox="0 0 15 14" xmlns="http://www.w3.org/2000/svg"><path d="M.719.73a.73.73 0 01.73-.73h3.883a.73.73 0 01.73.73v3.883a.73.73 0 01-.73.73H1.45a.73.73 0 01-.731-.73V.731zM.719 9.043a.73.73 0 01.73-.73h3.883a.73.73 0 01.73.73v3.883a.73.73 0 01-.73.73H1.45a.73.73 0 01-.731-.73V9.043zM9.031.73A.73.73 0 019.762 0h3.882a.73.73 0 01.731.73v3.883a.73.73 0 01-.73.73H9.761a.73.73 0 01-.73-.73V.731zM9.031 9.043a.73.73 0 01.731-.73h3.882a.73.73 0 01.731.73v3.883a.73.73 0 01-.73.73H9.761a.73.73 0 01-.73-.73V9.043z"/></symbol>
<symbol id="i-headphones" viewBox="0 0 24 24" xmlns="http://www.w3.org/2000/svg"><path d="M21.004 12A9.004 9.004 0 0112 21.004M2.996 12A9.004 9.004 0 0112 2.996"/><path d="M2.996 12a8.9 8.9 0 00.554 3.09c.168.46.64.733 1.122.65l.986-.174a1.5 1.5 0 001.225-1.69l-.297-2.08a1.5 1.5 0 00-1.746-1.265l-1.761.31M21.004 12A9.004 9.004 0 0012 2.996"/><path d="M21.004 12c0 1.055-.188 2.1-.554 3.09a1.01 1.01 0 01-1.122.65l-.986-.174a1.5 1.5 0 01-1.225-1.69l.297-2.08a1.5 1.5 0 011.746-1.265l1.761.31M13.492 12.491a.007.007 0 00-.007.005.007.007 0 00.01.01.007.007 0 00.005-.007c0-.002 0-.004-.002-.006a.007.007 0 00-.006-.002M10.508 12.494a.008.008 0 00-.007.005.008.008 0 00.002.008.008.008 0 00.008.002.008.008 0 00.005-.007l-.003-.006a.007.007 0 00-.005-.002"/></symbol>
<symbol id="i-heart" viewBox="0 0 18 16" xmlns="http://www.w3.org/2000/svg"><path d="M15.73 2.37A4.336 4.336 0 0012.53 1c-.923 0-1.769.287-2.514.853A5.096 5.096 0 009 2.897c-.3-.408-.64-.758-1.016-1.044A4.068 4.068 0 005.47 1a4.336 4.336 0 00-3.2 1.37C1.45 3.243 1 4.436 1 5.73c0 1.33.504 2.548 1.587 3.833.968 1.15 2.36 2.316 3.972 3.667.55.461 1.175.984 1.822 1.541a.948.948 0 001.237 0c.648-.557 1.272-1.08 1.823-1.541 1.612-1.351 3.004-2.518 3.972-3.667C16.496 8.278 17 7.06 17 5.729c0-1.293-.45-2.486-1.27-3.359z"/></symbol>
<symbol id="i-home" viewBox="0 0 19 19" xmlns="http://www.w3.org/2000/svg"><path fill-rule="evenodd" clip-rule="evenodd" d="M1.421 7.52a2 2 0 00-.687 1.508v7.863a2 2 0 002 2h4.472v-5.748a2.444 2.444 0 014.888 0v5.748h4.64a2 2 0 002-2V9.028a2 2 0 00-.686-1.509l-7-6.094a2 2 0 00-2.627 0l-7 6.094z"/></symbol>
<symbol id="i-image" viewBox="0 0 42 42" xmlns="http://www.w3.org/2000/svg"><path clip-rule="evenodd" d="M28.53 4.813H13.394c-5.276 0-8.582 3.734-8.582 9.02v14.26c0 5.285 3.292 9.02 8.582 9.02H28.53c5.292 0 8.583-3.735 8.583-9.02v-14.26c0-5.286-3.291-9.02-8.582-9.02z"/><path clip-rule="evenodd" d="M18.729 15.374a3.232 3.232 0 01-3.23 3.231 3.231 3.231 0 010-6.461 3.232 3.232 0 013.23 3.23z"/><path d="M37.112 26.164c-1.74-1.514-3.253-3.336-5.248-4.538-1.998-1.202-4.146-.46-5.532 1.333-1.338 1.735-2.175 4.067-4.196 5.161-2.49 1.35-3.953-.826-6.03-1.697-2.32-.972-4.08.775-5.435 2.453a487.251 487.251 0 01-4.108 5.005"/></symbol>
<symbol id="i-in" xmlns="http://www.w3.org/2000/svg" viewBox="0 0 20 20"><path d="M4.1 2.4c-1.1 0-1.9.8-1.9 1.8S2.9 6 4 6c1.2 0 1.9-.8 1.9-1.8s-.7-1.8-1.8-1.8zM2.4 7.4h3.3v10.5H2.4V7.4zM13.9 7.2c-1.8 0-3 1.8-3 1.8V7.4H7.6v10.5h3.3V12c0-.3 0-.6.1-.8.2-.6.8-1.3 1.7-1.3 1.2 0 1.7 1 1.7 2.4v5.6h3.3v-6c0-3.2-1.6-4.7-3.8-4.7z"/></symbol>
<symbol id="i-info" viewBox="0 0 12 12" xmlns="http://www.w3.org/2000/svg"><path fill-rule="evenodd" clip-rule="evenodd" d="M5.462.024a6.093 6.093 0 00-3.095 1.2c-.29.216-.929.855-1.145 1.144C.084 3.892-.28 5.787.218 7.602a6.119 6.119 0 001.004 2.031c.216.29.855.929 1.145 1.145 1.524 1.138 3.42 1.502 5.234 1.004a6.12 6.12 0 002.032-1.004c.29-.216.929-.855 1.145-1.145a6.12 6.12 0 001.004-2.031c.498-1.815.134-3.71-1.004-5.234-.216-.29-.855-.928-1.145-1.144a6.046 6.046 0 00-4.17-1.2zm.735 3.003c.312.09.553.405.553.723a.787.787 0 01-.553.722c-.38.11-.808-.135-.92-.526a.75.75 0 01.308-.812c.2-.13.405-.166.612-.107zm.38 2.283a.671.671 0 01.113.114c.048.063.049.092.055 1.444l.007 1.38.255.008c.214.006.267.016.32.056.124.092.162.167.162.315s-.038.223-.161.315c-.064.048-.089.049-1.328.049-1.24 0-1.264-.001-1.328-.049-.123-.092-.161-.167-.161-.315s.038-.223.161-.315c.054-.04.107-.05.321-.056l.256-.008V6h-.223c-.255 0-.347-.03-.44-.138a.372.372 0 010-.474c.116-.137.124-.138 1.066-.132.828.005.863.007.925.053z"/></symbol>
<symbol id="i-infocircle" viewBox="0 0 20 20" xmlns="http://www.w3.org/2000/svg"><g><path clip-rule="evenodd" d="M10.001 2.292a7.708 7.708 0 110 15.417 7.708 7.708 0 010-15.417z"/><path d="M9.999 6.837v3.682M9.998 13.164h.009"/></g></symbol>
<symbol id="i-instagram" xmlns="http://www.w3.org/2000/svg" viewBox="0 0 20 20"><path d="M7.5 10c0 1.4 1.2 2.6 2.6 2.6 1.4 0 2.6-1.2 2.6-2.6S11.5 7.4 10 7.4c-1.4 0-2.5 1.1-2.5 2.6z"/><path d="M17.4 4.9c.2.5.3 1.1.4 1.9v6.4c0 .8-.2 1.4-.4 1.9-.4 1-1.2 1.9-2.3 2.3-.5.2-1.1.3-1.9.4H6.8c-.8 0-1.4-.2-1.9-.4s-1-.5-1.4-.9c-.3-.5-.6-.9-.8-1.5-.2-.5-.3-1.1-.4-1.9V9.9 6.7c0-.8.2-1.4.4-1.9s.5-1 .9-1.4c.4-.3.8-.6 1.4-.8.5-.2 1-.3 1.8-.4h6.4c.8 0 1.4.2 1.9.4s1 .5 1.4.9c.4.4.7.9.9 1.4zm-3.2 1.8c.5 0 .9-.4.9-.9s-.4-.9-.9-.9-.9.4-.9.9.4.9.9.9zM6.1 10c0-2.2 1.8-4 4-4s4 1.8 4 4-1.8 4-4 4c-2.3-.1-4-1.8-4-4z"/></symbol>
<symbol id="i-instagram2" viewBox="0 0 20 20" xmlns="http://www.w3.org/2000/svg"><path d="M19.95 5.88c-.048-1.063-.22-1.793-.466-2.426a4.88 4.88 0 00-1.157-1.774 4.923 4.923 0 00-1.77-1.153C15.92.281 15.193.11 14.131.063 13.06.012 12.72 0 10.004 0 7.288 0 6.948.012 5.88.059 4.818.105 4.088.277 3.455.523A4.881 4.881 0 001.68 1.68 4.924 4.924 0 00.528 3.45C.28 4.087.109 4.813.063 5.876.012 6.946 0 7.286 0 10.002c0 2.715.012 3.055.059 4.122.046 1.063.219 1.793.465 2.426a4.931 4.931 0 001.156 1.774c.5.508 1.106.902 1.77 1.152.638.247 1.364.419 2.427.465C6.944 19.988 7.284 20 10 20s3.056-.012 4.123-.059c1.063-.046 1.793-.218 2.426-.464a5.116 5.116 0 002.927-2.927c.247-.637.419-1.363.465-2.426.047-1.067.059-1.407.059-4.122s-.004-3.055-.05-4.122zm-1.802 8.166c-.043.977-.207 1.504-.344 1.856a3.318 3.318 0 01-1.9 1.899c-.351.136-.882.3-1.856.343-1.055.047-1.371.059-4.04.059-2.67 0-2.99-.012-4.04-.059-.978-.043-1.505-.207-1.857-.343a3.079 3.079 0 01-1.149-.747 3.11 3.11 0 01-.746-1.148c-.137-.352-.301-.883-.344-1.856-.047-1.055-.059-1.372-.059-4.04 0-2.669.012-2.99.059-4.04.043-.977.207-1.504.344-1.856a3.04 3.04 0 01.75-1.149 3.105 3.105 0 011.149-.746c.352-.137.883-.3 1.856-.344 1.055-.046 1.372-.058 4.04-.058 2.674 0 2.99.012 4.041.058.977.043 1.505.207 1.857.344.433.16.828.414 1.148.746.333.325.587.715.747 1.15.137.35.3.882.344 1.855.047 1.055.058 1.371.058 4.04 0 2.668-.011 2.98-.058 4.036z"/><path d="M10 5c-2.76 0-5 2.24-5 5s2.24 5 5 5a5.001 5.001 0 000-10zm0 8.243a3.244 3.244 0 11.001-6.487A3.244 3.244 0 0110 13.243zM16 4a1 1 0 11-2 0 1 1 0 012 0z"/></symbol>
<symbol id="i-lang" viewBox="0 0 18 18" xmlns="http://www.w3.org/2000/svg"><path d="M9 2.25A6.739 6.739 0 0115.75 9 6.739 6.739 0 019 15.75M9 15.75A6.739 6.739 0 012.25 9 6.739 6.739 0 019 2.25"/><path clip-rule="evenodd" d="M7.626 3.045c-2.168 3.619-2.168 8.292 0 11.91a1.586 1.586 0 002.748 0c2.168-3.618 2.168-8.291 0-11.91a1.586 1.586 0 00-2.748 0z"/><path d="M2.25 9h13.5"/></symbol>
<symbol id="i-lightning-bolt" viewBox="0 0 20 21" xmlns="http://www.w3.org/2000/svg"><path clip-rule="evenodd" d="M10.806 3.496l-6.847 9.167H10l-.806 5.833 6.848-9.167H10l.806-5.833z"/></symbol>
<symbol id="i-list" viewBox="0 0 15 14" xmlns="http://www.w3.org/2000/svg"><path d="M.625.73a.73.73 0 01.73-.73h3.883a.73.73 0 01.73.73v12.195a.73.73 0 01-.73.731H1.356a.73.73 0 01-.731-.73V.73zM8.938.73a.73.73 0 01.73-.73h3.883a.73.73 0 01.73.73v12.195a.73.73 0 01-.73.731H9.668a.73.73 0 01-.73-.73V.73z"/></symbol>
<symbol id="i-list2" viewBox="0 0 12 11" xmlns="http://www.w3.org/2000/svg"><path d="M2.5 1h9M2.5 5.5h9M2.5 10h9"/><circle cx=".5" cy="1" r=".5"/><circle cx=".5" cy="5.5" r=".5"/><circle cx=".5" cy="10" r=".5"/></symbol>
<symbol id="i-loading" viewBox="0 0 29 31" xmlns="http://www.w3.org/2000/svg"><circle cx="14.776" cy="3.29" r="3.176"/><circle cx="5.799" cy="7.019" r="2.762"/><circle cx="2.486" cy="15.857" r="2.486"/><circle cx="6.076" cy="24.695" r="2.486"/><circle cx="14.638" cy="28.285" r="2.486"/><circle cx="23.337" cy="24.557" r="2.071"/><circle cx="27.343" cy="16.133" r="1.657"/><circle cx="24.582" cy="8.124" r="1.381"/></symbol>
<symbol id="i-location" viewBox="0 0 24 24" xmlns="http://www.w3.org/2000/svg"><path clip-rule="evenodd" d="M4.238 10.392a7.678 7.678 0 1115.357.052v.087c-.052 2.756-1.591 5.304-3.479 7.295a20.18 20.18 0 01-3.59 2.957.93.93 0 01-1.218 0 19.818 19.818 0 01-5.052-4.73 9.826 9.826 0 01-2.018-5.635v-.026z"/><circle cx="11.916" cy="10.54" r="2.461"/></symbol>
<symbol id="i-logout" viewBox="0 0 24 24" xmlns="http://www.w3.org/2000/svg"><path d="M5.998 15.001v3.002a3.001 3.001 0 003 3h9.005a3.001 3.001 0 003-3V5.997a3.001 3.001 0 00-3-3H8.999a3.001 3.001 0 00-3.001 3V9"/><path d="M12 15.001L15.001 12 12 8.999M2.997 12h12.005"/></symbol>
<symbol id="i-menu" viewBox="0 0 15 12" xmlns="http://www.w3.org/2000/svg"><path d="M1 1h13M1 6h13M1 11h13"/></symbol>
<symbol id="i-minuscircle" viewBox="0 0 20 20" xmlns="http://www.w3.org/2000/svg"><path clip-rule="evenodd" d="M5.665 16.503l-2.251-2.251a3.275 3.275 0 01-.917-2.335V8.082a3.027 3.027 0 011-2.334l2.251-2.25a3.027 3.027 0 012.334-1.001h3.919c.887-.025 1.74.34 2.334 1l2.251 2.251c.603.626.933 1.465.917 2.334v3.919c.025.887-.34 1.74-1 2.334l-2.251 2.251a3.292 3.292 0 01-2.335 1H8.082a3.804 3.804 0 01-2.417-1.083z"/><path d="M7.499 10H12.5"/></symbol>
<symbol id="i-noneuser" viewBox="0 0 20 20" xmlns="http://www.w3.org/2000/svg"><path d="M10 13.334H7.91c-.63 0-1.237.239-1.7.666l-.053.05a2.688 2.688 0 00-.67.977l-.292.732M10.987 10.988a2.893 2.893 0 001.929-2.72A2.918 2.918 0 009.998 5.35a2.892 2.892 0 00-2.72 1.93"/><path d="M3.302 6.634a7.501 7.501 0 001.396 8.671A7.501 7.501 0 0013.37 16.7M4.695 4.696v0a7.503 7.503 0 0110.61 10.608M16.665 16.667L3.332 3.333"/></symbol>
<symbol id="i-other-posts" viewBox="0 0 14 14" xmlns="http://www.w3.org/2000/svg"><path fill-rule="evenodd" clip-rule="evenodd" d="M.75 7v6a.5.5 0 00.5.5h.619a.5.5 0 00.5-.498l.006-1.127.005-1.127a.5.5 0 01.5-.498H2.965a.5.5 0 01.5.496l.004.59.005.586a.5.5 0 00.505.496l.299-.003.31-.004a.5.5 0 00.494-.496l.004-.595.005-.59a.5.5 0 01.5-.496h4.892c.005 0 .01.003.013.008a.015.015 0 00.013.008l1.616-.008 1.127-.006a.5.5 0 00.498-.5V1a.5.5 0 00-.5-.5h-12a.5.5 0 00-.5.5v6zm4.875-2.703l.006 1.122a.5.5 0 01-.5.503H2.867a.5.5 0 01-.5-.5V4.31c0-.886.01-1.621.022-1.633.011-.012.743-.018 1.625-.013l1.108.005a.5.5 0 01.498.498l.005 1.13zm6.492-1.086v.04a.5.5 0 01-.498.5l-2.205.007-2.202.007a.5.5 0 01-.501-.5v-.108a.5.5 0 01.501-.5l2.202.007 2.205.006a.5.5 0 01.498.5v.041zm.016 2.172v.039a.5.5 0 01-.5.5H7.21a.5.5 0 01-.5-.5v-.078a.5.5 0 01.5-.5H11.632a.5.5 0 01.5.5v.039zM8.328 7.539v.04a.5.5 0 01-.5.499h-4.96a.5.5 0 01-.5-.5V7.5a.5.5 0 01.5-.5h4.96a.5.5 0 01.5.5v.039zm3.805 0v.04a.5.5 0 01-.5.499H9.906a.5.5 0 01-.5-.5V7.5a.5.5 0 01.5-.5H11.633a.5.5 0 01.5.5v.039z"/></symbol>
<symbol id="i-paper" viewBox="0 0 12 14" xmlns="http://www.w3.org/2000/svg"><path fill-rule="evenodd" clip-rule="evenodd" d="M3.675 9.994h3.648a.516.516 0 00.503-.52.51.51 0 00-.503-.515H3.675a.51.51 0 00-.503.514c0 .285.228.521.503.521zM5.94 5.487H3.675a.516.516 0 00-.503.52.51.51 0 00.503.515H5.94a.51.51 0 00.503-.514.516.516 0 00-.503-.521zm4.786-.607c.157-.002.329-.004.485-.004.168 0 .302.139.302.313v5.584c0 1.723-1.348 3.12-3.011 3.12H3.165C1.422 13.892 0 12.425 0 10.62V3.133C0 1.41 1.355 0 3.024 0h3.581c.174 0 .309.146.309.32v2.236c0 1.271 1.012 2.313 2.24 2.32.286 0 .539.002.76.004l.46.003.353-.003zm.184-1.014c-.55.002-1.2 0-1.668-.005-.741 0-1.352-.633-1.352-1.401V.629c0-.3.35-.448.55-.232l1.36 1.464 1.34 1.444c.196.21.053.56-.23.56z"/></symbol>
<symbol id="i-penedit" viewBox="0 0 20 20" xmlns="http://www.w3.org/2000/svg"><path clip-rule="evenodd" d="M7.1 16.669H3.33v-3.77c0-.387.154-.758.427-1.031L12.7 2.924a1.457 1.457 0 012.061 0l2.313 2.313a1.457 1.457 0 010 2.061l-8.944 8.944a1.46 1.46 0 01-1.03.427z"/><path d="M10.834 4.998l4.168 4.168"/></symbol>
<symbol id="i-phone-1" viewBox="0 0 18 18" xmlns="http://www.w3.org/2000/svg"><path d="M9.177 10.115h0c.382.314.916.658 1.375.933l.333.195c.36-.328.865-.775 1.207-1.03h0c.613-.459 1.24-.344 1.64-.142a2.02 2.02 0 01.58.444l.006.006.063.063.228.229c.19.19.448.45.718.724.53.537 1.138 1.16 1.352 1.405h0c.347.399.426.838.416 1.163a1.789 1.789 0 01-.107.554l-.006.015-.002.007-.002.003h0v.002l-.692-.29.691.29-.025.06-.036.056-.073.114c-.271.425-.626.979-1.237 1.408-.685.48-1.611.758-2.97.79h-.017c-1.497.001-2.958-.614-4.26-1.46-1.3-.844-2.501-1.957-3.5-3.051C3.86 11.63 2.882 10.5 2.15 9.29 1.416 8.078.898 6.737.9 5.364v-.017c.03-1.36.31-2.286.79-2.97.429-.612.983-.966 1.408-1.238l.114-.073.055-.035.061-.026.29.691-.29-.691h.001l.002-.001.003-.001L3.34 1l.016-.006a1.279 1.279 0 01.163-.052c.097-.025.232-.05.39-.055.325-.01.765.07 1.163.417l4.105 8.81zm0 0c-1.154-.95-1.941-2.132-2.373-2.84m2.373 2.84l-2.373-2.84m0 0l-.071-.135c.331-.364.803-.895 1.068-1.25l-.997 1.384zm.694-3.605a1.678 1.678 0 01.146.148c.087.096.203.243.298.432.202.4.317 1.027-.14 1.64l-.304-2.22zm0 0l-.006-.006-.063-.063-.229-.228c-.19-.19-.45-.448-.724-.718-.536-.529-1.158-1.137-1.404-1.351L7.498 3.67zm3.843 7.827h0z"/></symbol>
<symbol id="i-phone" viewBox="0 0 11 10" xmlns="http://www.w3.org/2000/svg"><path fill-rule="evenodd" clip-rule="evenodd" d="M2.857.026a2.815 2.815 0 00-1.564.812C.91 1.23.66 1.703.537 2.268c-.05.23-.05 1.026 0 1.405.196 1.492.792 2.811 1.766 3.91 1.172 1.324 2.726 2.14 4.523 2.38.378.05 1.174.05 1.405 0 .4-.086.782-.25 1.086-.466.217-.154.512-.446.662-.658.221-.31.393-.706.472-1.09.038-.18.061-.52.042-.618-.027-.15-.013-.142-1.748-.836-.97-.388-1.643-.647-1.681-.647a.298.298 0 00-.215.103c-.024.026-.171.364-.326.75l-.281.701-.094-.004c-.302-.014-.78-.148-1.102-.308a2.922 2.922 0 01-.831-.606 2.922 2.922 0 01-.606-.831c-.16-.322-.294-.8-.308-1.102l-.004-.094.702-.281c.386-.155.723-.302.75-.326a.298.298 0 00.102-.215c0-.038-.258-.71-.646-1.68C3.546.107 3.525.058 3.408.014c-.064-.024-.377-.018-.55.011z"/></symbol>
<symbol id="i-pinned" viewBox="0 0 24 24" xmlns="http://www.w3.org/2000/svg"><path d="M12 20v-5"/><path fill-rule="evenodd" clip-rule="evenodd" d="M6.99 15h10.02a.99.99 0 00.575-1.796L14.5 11V8l2.555-1.703c.278-.186.445-.498.445-.832V5a1 1 0 00-1-1h-9a1 1 0 00-1 1v.465a1 1 0 00.445.832L9.5 8v3l-3.085 2.204A.989.989 0 006.99 15z"/></symbol>
<symbol id="i-plus" viewBox="0 0 24 24" xmlns="http://www.w3.org/2000/svg"><rect x="2" y="2" width="20" height="20" rx="3"/><path d="M16.167 11.167h-3.334V7.833a.834.834 0 00-1.666 0v3.334H7.833a.834.834 0 000 1.666h3.334v3.334a.834.834 0 001.666 0v-3.334h3.334a.834.834 0 000-1.666z"/></symbol>
<symbol id="i-plusbig" viewBox="0 0 24 24" xmlns="http://www.w3.org/2000/svg"><path d="M2.002 10.499a1.5 1.5 0 000 3v-3zM22 13.5a1.5 1.5 0 000-3v3zM13.5 2.001a1.5 1.5 0 00-3 0h3zM10.5 22a1.5 1.5 0 003 0h-3zm-8.498-8.501L22 13.5v-3l-19.998-.001v3zm8.497-11.497L10.502 22h3L13.498 2h-3z"/></symbol>
<symbol id="i-prev" viewBox="0 0 24 24" xmlns="http://www.w3.org/2000/svg"><path d="M8.879 12a.997.997 0 01.293-.707l4.242-4.243a1 1 0 011.414 1.414L11.293 12l3.535 3.536a1 1 0 11-1.414 1.414l-4.242-4.243A.996.996 0 018.879 12z"/></symbol>
<symbol id="i-profile" viewBox="0 0 20 20" xmlns="http://www.w3.org/2000/svg"><path fill-rule="evenodd" clip-rule="evenodd" d="M10 .917A5.145 5.145 0 004.84 6.076c0 2.862 2.299 5.16 5.161 5.16a5.145 5.145 0 005.162-5.16A5.144 5.144 0 0010 .916zM6.34 6.076A3.645 3.645 0 0110 2.416a3.644 3.644 0 013.662 3.66A3.645 3.645 0 0110 9.736a3.646 3.646 0 01-3.661-3.66zM10 11.895c-1.814 0-3.587.14-4.929.609-.676.236-1.296.573-1.752 1.066a2.735 2.735 0 00-.736 1.91c0 .753.261 1.396.73 1.908.455.496 1.073.836 1.748 1.075 1.34.475 3.114.62 4.94.62 1.814 0 3.586-.14 4.928-.608.676-.237 1.296-.574 1.752-1.067.473-.51.736-1.153.736-1.909a2.75 2.75 0 00-.73-1.909c-.454-.495-1.072-.836-1.747-1.075-1.34-.475-3.114-.62-4.94-.62zm-5.917 3.584c0-.378.121-.657.337-.89.232-.25.604-.48 1.146-.67 1.092-.38 2.653-.524 4.434-.524 1.79 0 3.35.148 4.439.534.54.191.91.422 1.142.675.215.235.336.516.336.895 0 .378-.121.657-.337.89-.232.25-.604.48-1.146.67-1.092.381-2.653.524-4.434.524-1.789 0-3.35-.148-4.438-.534-.54-.19-.911-.422-1.142-.674a1.253 1.253 0 01-.337-.896z"/></symbol>
<symbol id="i-readmessage" viewBox="0 0 18 11" xmlns="http://www.w3.org/2000/svg"><path d="M11.793 2L4.633 9.88l-3.491-3.34M16.74 2L9.58 9.879l-1.297-1.23"/></symbol>
<symbol id="i-refresh" viewBox="0 0 23 23" xmlns="http://www.w3.org/2000/svg"><path d="M6.469 7.906H2.875V4.313"/><path d="M20.124 11.5a8.624 8.624 0 00-8.625-8.625c-3.479 0-6.47 2.064-7.833 5.031M16.531 15.094h3.594v3.594"/><path d="M2.875 11.5a8.624 8.624 0 008.625 8.625c3.479 0 6.47-2.064 7.833-5.031"/></symbol>
<symbol id="i-reset" viewBox="0 0 12 11" xmlns="http://www.w3.org/2000/svg"><path fill-rule="evenodd" clip-rule="evenodd" d="M5.553.012a5.09 5.09 0 00-1.84.517 5.22 5.22 0 00-2.07 1.81c-.148.224-.315.519-.3.533.004.005.297.12.65.257l.693.268c.044.017.06.005.115-.09.207-.36.604-.793.994-1.086.253-.19.729-.436 1.043-.539 1.422-.466 3.025-.021 3.99 1.107a3.84 3.84 0 01.813 1.567l.033.144H8.77l-.073.083c-.083.095-.089.139-.031.225.069.103 1.443 1.503 1.51 1.539.086.045.229.041.302-.008.032-.023.389-.376.79-.785.803-.815.79-.797.678-.962l-.053-.08-.353-.007-.353-.006-.04-.229a5.231 5.231 0 00-.99-2.214A5.204 5.204 0 006.737.048 6.702 6.702 0 005.554.012zm-4.02 4.532C1.449 4.595.063 6.016.025 6.09c-.042.078-.034.116.045.206l.073.083h.692l.04.191C1.199 8.067 2.423 9.467 3.96 10.1c.687.282 1.284.4 2.04.401a4.903 4.903 0 002.353-.552 5.356 5.356 0 002.06-1.857l.084-.133-.239-.093-.71-.28-.473-.188-.1.138c-.347.479-.993.972-1.57 1.198-1.413.556-2.953.246-4.027-.81-.422-.414-.778-.985-.929-1.49l-.015-.052.417-.006.417-.007.055-.1c.038-.07.05-.12.04-.166-.01-.045-.25-.302-.782-.834L1.813 4.5h-.105a.377.377 0 00-.175.044z"/></symbol>
<symbol id="i-search" viewBox="0 0 14 15" xmlns="http://www.w3.org/2000/svg"><path d="M13.829 13.386l-3.366-3.366A5.902 5.902 0 005.9.38a5.9 5.9 0 103.737 10.466l3.366 3.363a.583.583 0 00.826-.823zM5.9 11.006A4.732 4.732 0 011.171 6.28 4.734 4.734 0 015.9 1.55a4.736 4.736 0 014.729 4.729A4.734 4.734 0 015.9 11.006z"/></symbol>
<symbol id="i-send" viewBox="0 0 24 24" xmlns="http://www.w3.org/2000/svg"><path d="M21.472 12.012a1.933 1.933 0 00-1.01-1.72L5.772 2.218a1.92 1.92 0 00-2.054.097c-.632.43-.955 1.456-.778 2.196l1.371 5.746c.141.59.668 1.004 1.275 1.002l8.176-.026a.734.734 0 01.75.75.763.763 0 01-.754.755l-8.184.019a1.323 1.323 0 00-1.281 1.008l-1.42 5.769a1.91 1.91 0 00.505 1.843c.056.057.12.12.184.17a1.95 1.95 0 002.135.17l14.742-7.992a1.964 1.964 0 001.034-1.714z"/></symbol>
<symbol id="i-setting" viewBox="0 0 24 24" xmlns="http://www.w3.org/2000/svg"><path fill-rule="evenodd" clip-rule="evenodd" d="M20.402 13.58c.358.19.634.49.828.79.378.62.348 1.38-.02 2.05l-.716 1.2a2.13 2.13 0 01-1.808 1.04c-.358 0-.757-.1-1.084-.3-.265-.17-.572-.23-.9-.23-1.01 0-1.86.83-1.89 1.82 0 1.15-.94 2.05-2.115 2.05h-1.39c-1.186 0-2.126-.9-2.126-2.05-.02-.99-.868-1.82-1.88-1.82-.337 0-.644.06-.9.23-.327.2-.735.3-1.083.3-.736 0-1.44-.4-1.819-1.04l-.705-1.2c-.378-.65-.399-1.43-.02-2.05.163-.3.47-.6.817-.79.286-.14.47-.37.644-.64.511-.86.204-1.99-.664-2.5a2.044 2.044 0 01-.757-2.83L3.5 6.43a2.124 2.124 0 012.882-.76c.89.48 2.044.16 2.565-.69.164-.28.256-.58.235-.88-.02-.39.092-.76.286-1.06A2.195 2.195 0 0111.277 2h1.44c.756 0 1.441.42 1.82 1.04.183.3.306.67.275 1.06-.02.3.072.6.235.88.521.85 1.676 1.17 2.576.69a2.112 2.112 0 012.871.76l.685 1.18c.593.99.266 2.26-.756 2.83-.869.51-1.175 1.64-.654 2.5.163.27.347.5.633.64zM9.11 12.01c0 1.57 1.298 2.82 2.902 2.82 1.605 0 2.872-1.25 2.872-2.82 0-1.57-1.267-2.83-2.872-2.83-1.604 0-2.902 1.26-2.902 2.83z"/></symbol>
<symbol id="i-settings" viewBox="0 0 20 21" xmlns="http://www.w3.org/2000/svg"><path d="M11.591 9.405a2.25 2.25 0 11-3.182 3.182 2.25 2.25 0 013.182-3.182"/><path clip-rule="evenodd" d="M4.375 10.996c0 .247.022.495.052.735l-1.323 1.035a.748.748 0 00-.187.963l1.177 2.036c.186.322.58.458.927.32l1.185-.476a.76.76 0 01.705.082c.183.122.373.234.57.334a.763.763 0 01.424.568l.18 1.26a.747.747 0 00.74.643h2.348a.747.747 0 00.74-.642l.181-1.26c.036-.25.2-.456.427-.57.195-.098.385-.208.567-.33a.763.763 0 01.709-.084l1.182.475c.345.138.74.002.927-.32l1.176-2.036a.748.748 0 00-.186-.963l-1.324-1.035c.03-.24.053-.488.053-.735 0-.248-.023-.495-.053-.735l1.324-1.035a.748.748 0 00.186-.964l-1.176-2.036a.748.748 0 00-.927-.32l-1.182.475a.765.765 0 01-.709-.085 5.49 5.49 0 00-.567-.33.765.765 0 01-.427-.569l-.18-1.26a.748.748 0 00-.74-.641H8.826a.747.747 0 00-.74.641L7.905 5.4a.767.767 0 01-.424.568c-.197.1-.387.213-.57.334a.764.764 0 01-.706.081L5.02 5.906a.748.748 0 00-.927.32L2.917 8.262a.748.748 0 00.187.964l1.323 1.035c-.03.24-.052.487-.052.735v0z"/></symbol>
<symbol id="i-shield" viewBox="0 0 24 24" xmlns="http://www.w3.org/2000/svg"><path fill-rule="evenodd" clip-rule="evenodd" d="M11.728 21.914a.765.765 0 00.717-.004l3.568-1.907c1.012-.54 1.804-1.143 2.422-1.845a8.245 8.245 0 002.065-5.495l-.043-6.641a1.809 1.809 0 00-1.249-1.695L12.571 2.1a1.889 1.889 0 00-1.23.006L4.728 4.413A1.812 1.812 0 003.5 6.124l.042 6.636a8.248 8.248 0 002.139 5.473c.624.693 1.423 1.287 2.446 1.817l3.601 1.864zm-.945-7.805a.759.759 0 00.536.211.76.76 0 00.532-.218l3.9-3.844a.722.722 0 00-.007-1.04.77.77 0 00-1.068.006l-3.368 3.32-1.38-1.325a.77.77 0 00-1.068.007.721.721 0 00.007 1.04l1.916 1.843z"/></symbol>
<symbol id="i-sliders" viewBox="0 0 23 15" xmlns="http://www.w3.org/2000/svg"><circle cx="16.6" cy="3.6" r="2.6"/><circle cx="6.2" cy="11.4" r="2.6"/><path d="M1 3.6h13M8.799 11.4h13M1 11.4h2.6M19.201 3.6h2.6"/></symbol>
<symbol id="i-support" viewBox="0 0 24 24" xmlns="http://www.w3.org/2000/svg"><path d="M18.5 10v-.5A6.5 6.5 0 0012 3v0a6.5 6.5 0 00-6.5 6.5v.5M13.875 20H16a2 2 0 002-2v-1"/><path fill-rule="evenodd" clip-rule="evenodd" d="M19 17h-1a1 1 0 01-1-1v-5a1 1 0 011-1h1a2 2 0 012 2v3a2 2 0 01-2 2zM6 17H5a2 2 0 01-2-2v-3a2 2 0 012-2h1a1 1 0 011 1v5a1 1 0 01-1 1zM12.625 21.25h-1.25a1.25 1.25 0 010-2.5h1.25a1.25 1.25 0 010 2.5z"/></symbol>
<symbol id="i-tariffrect" viewBox="0 0 118 118" xmlns="http://www.w3.org/2000/svg"><path d="M.5 30c0-7.085.001-12.349.545-16.392.541-4.03 1.614-6.773 3.702-8.861 2.088-2.088 4.831-3.16 8.86-3.702C17.651.5 22.916.5 30 .5h58c7.085 0 12.349.001 16.392.545 4.03.541 6.773 1.614 8.861 3.702 2.088 2.088 3.161 4.831 3.702 8.86.544 4.044.545 9.308.545 16.393v45.182c0 4.963-.001 8.645-.323 11.566-.321 2.907-.956 5.012-2.197 6.832-1.241 1.82-2.969 3.18-5.559 4.54-2.6 1.367-6.028 2.712-10.648 4.525l-29.449 11.552c-5.498 2.156-8.126 3.179-10.87 3.17-2.745-.009-5.366-1.048-10.85-3.24l-28.552-11.411c-4.58-1.83-7.976-3.188-10.553-4.562-2.566-1.367-4.277-2.729-5.505-4.542-1.228-1.813-1.857-3.907-2.174-6.798C.5 83.912.5 80.254.5 75.323V30z"/></symbol>
<symbol id="i-telegram" viewBox="0 0 20 20" xmlns="http://www.w3.org/2000/svg"><path d="M4.812 11.43L7.3 17.797l3.238-3.316L16.09 19 20 1 0 9.53l4.812 1.9zm9.473-5.266l-6.122 5.718-.762 2.943-1.409-3.607 8.293-5.054z"/></symbol>
<symbol id="i-user" viewBox="0 0 24 24" xmlns="http://www.w3.org/2000/svg"><path fill-rule="evenodd" clip-rule="evenodd" d="M17.294 7.291A5.274 5.274 0 0112 12.583a5.275 5.275 0 01-5.294-5.292A5.274 5.274 0 0112 2a5.273 5.273 0 015.294 5.291zM12 22c-4.338 0-8-.705-8-3.425 0-2.721 3.685-3.401 8-3.401 4.339 0 8 .705 8 3.425 0 2.72-3.685 3.4-8 3.4z"/></symbol>
<symbol id="i-view" xmlns="http://www.w3.org/2000/svg" viewBox="0 0 13 13"><path d="M6.5 8.7c-1.3 0-2.3-1-2.3-2.2 0-1.2 1-2.2 2.3-2.2 1.3 0 2.3 1 2.3 2.2 0 1.2-1 2.2-2.3 2.2zm6-2.4C11.8 5 11 3.9 9.9 3.2 8.9 2.4 7.7 2 6.5 2 4 2 1.8 3.6.5 6.3v.3C1.8 9.4 4 11 6.5 11s4.7-1.6 6-4.3v-.4z"/></symbol>
<symbol id="i-wallet" viewBox="0 0 24 24" xmlns="http://www.w3.org/2000/svg"><path fill-rule="evenodd" clip-rule="evenodd" d="M17.769 8.382H22C22 4.985 19.964 3 16.516 3H7.484C4.036 3 2 4.985 2 8.338v7.324C2 19.015 4.036 21 7.484 21h9.032C19.964 21 22 19.015 22 15.662v-.313h-4.231c-1.964 0-3.556-1.552-3.556-3.466 0-1.915 1.592-3.467 3.556-3.467v-.034zm0 1.491h3.485c.412 0 .746.326.746.728v2.53a.746.746 0 01-.746.729h-3.405c-.994.013-1.863-.651-2.089-1.595a1.982 1.982 0 01.433-1.652 2.092 2.092 0 011.576-.74zm.152 2.66h.329a.755.755 0 00.764-.745.755.755 0 00-.764-.745h-.33a.766.766 0 00-.54.213.728.728 0 00-.224.524c0 .413.341.749.765.754zM6.738 8.382h5.644a.755.755 0 00.765-.745.755.755 0 00-.764-.745H6.738a.755.755 0 00-.764.736c0 .413.34.75.764.754z"/></symbol>
<symbol id="i-whatsapp" xmlns="http://www.w3.org/2000/svg" viewBox="0 0 20 20"><path d="M5.7 17l-.3-.2-2.9.8.8-2.9-.3-.4c-.8-1.3-1.2-2.8-1.2-4.4 0-4.5 3.7-8.1 8.2-8.1 4.5 0 8.3 3.6 8.3 8.1 0 4.6-3.7 8.3-8.2 8.3-1.6 0-3.1-.5-4.4-1.2zm1-11.7h.7c.1 0 .2.1.3.2l1 2.2c0 .1 0 .2-.1.3l-.9 1c-.1.1-.1.2 0 .3 1.1 2.1 3 2.9 3.6 3.1.1 0 .2 0 .3-.1l.9-1.1c.1-.1.3-.2.4-.1l2.2 1c.1.1.2.2.2.4l-.3.5c-.1.5-.4 1-.9 1.3-.6.4-1.4.5-2.3.3-3-.9-4.7-2.8-5.6-4.1C5.3 9.2 4.9 8 5.2 7c.1-.7.7-1.2 1-1.5.1-.1.3-.2.5-.2z"/></symbol>
<symbol id="i-yahoo" xmlns="http://www.w3.org/2000/svg" viewBox="0 0 512 512"><path d="M504.783 77.091H303.494a7.218 7.218 0 00-7.187 7.915l3.925 40.693a7.22 7.22 0 006.792 6.516l42.05 2.314-80.736 112.023-88.045-175.41 63.563-2.43a7.217 7.217 0 006.945-7.121l.464-36.392a7.234 7.234 0 00-2.082-5.166 7.225 7.225 0 00-5.137-2.147H7.22A7.218 7.218 0 000 25.107v40.558a7.22 7.22 0 007.115 7.22l66.917.964 127.257 224.488-.568 140.205-88.48 3.631a7.22 7.22 0 00-6.923 7.077l-.716 37.506a7.221 7.221 0 007.22 7.357h276.762a7.226 7.226 0 005.239-2.249 7.214 7.214 0 001.974-5.346l-1.933-37.132a7.218 7.218 0 00-6.835-6.834l-76.124-3.992-11.082-136.57 136.656-164.66 55.64-2.53a7.228 7.228 0 006.587-5.139l12.909-43.018a7.24 7.24 0 00.385-2.332 7.217 7.217 0 00-7.217-7.22z"/></symbol>
<symbol id="i-youtube" xmlns="http://www.w3.org/2000/svg" viewBox="0 0 20 20"><path d="M8.1 3.6c-2.6.1-4.2.2-4.8.4-.7.2-1.2.6-1.5 1.2-.1.3-.1.4-.2.8-.1.7-.2 1.7-.3 2.5V12c.1 1.2.2 2.2.3 2.5.2.7.8 1.3 1.5 1.5 1.3.4 8.1.5 12 .2 1.6-.1 2-.3 2.6-.8.4-.4.5-.7.7-1.4.1-.7.2-1.6.3-2.4V7.8c-.1-.6-.2-1.5-.2-1.9-.2-1-.8-1.7-1.8-1.9-.4-.1-1.1-.2-1.9-.2-1.6-.2-4.8-.2-6.7-.2zm2.4 5c1.2.7 2.2 1.4 2.2 1.4s-4.3 2.7-4.4 2.7V10 7.3s1 .6 2.2 1.3z"/></symbol>
<symbol id="i-youtube2" viewBox="0 0 20 20" xmlns="http://www.w3.org/2000/svg"><path d="M18.702 9.93a2.13 2.13 0 00-.66-1.151 2.087 2.087 0 00-1.176-.547C15.46 8.077 13.337 8 10.5 8c-2.837 0-4.955.078-6.355.232a2.069 2.069 0 00-1.181.547c-.337.31-.559.694-.666 1.151C2.1 10.83 2 12.186 2 14c0 1.845.1 3.202.298 4.07.1.457.32.841.66 1.15.34.311.732.49 1.176.536C5.54 19.919 7.663 20 10.5 20c2.837 0 4.96-.081 6.366-.244a1.995 1.995 0 001.17-.535c.337-.31.559-.694.666-1.151.198-.9.298-2.256.298-4.07 0-1.845-.1-3.202-.298-4.07zm-11.85 1.175H5.626v6.616H4.478v-6.616H3.274v-1.093h3.579v1.093zM9.95 17.72H8.929v-.628c-.413.473-.803.71-1.17.71-.352 0-.574-.144-.666-.431-.06-.186-.092-.47-.092-.849v-4.546h1.021v4.232c0 .248.004.384.012.407.023.163.103.244.24.244.207 0 .425-.162.655-.488v-4.395h1.02v5.744zM13.85 16c0 .566-.035.954-.103 1.163-.13.426-.402.64-.815.64-.367 0-.722-.214-1.067-.64v.558h-1.02v-7.71h1.02v2.524c.33-.418.685-.628 1.067-.628.413 0 .684.217.815.651.068.202.103.586.103 1.152V16zm3.877-.954h-2.053v1.012c0 .535.175.802.527.802.252 0 .405-.139.459-.418.015-.078.023-.314.023-.71h1.044v.152c0 .38-.008.604-.023.674a1.42 1.42 0 01-.241.628c-.276.41-.689.616-1.24.616-.527 0-.94-.197-1.238-.593-.222-.287-.332-.736-.332-1.348v-2.012c0-.613.106-1.062.32-1.35.299-.394.708-.592 1.228-.592.512 0 .918.198 1.216.593.207.287.31.736.31 1.349v1.197z"/><path d="M12.536 13c-.183 0-.361.085-.536.255v3.49c.175.17.353.255.536.255.309 0 .464-.259.464-.777v-2.446c0-.518-.155-.777-.464-.777zM16.5 13c-.333 0-.5.199-.5.596V14h1v-.404c0-.397-.167-.596-.5-.596zM6.453 4.169V7h1.152V4.169L9 0H7.824L7.04 2.748 6.222 0H5c.215.585.465 1.236.75 1.954.36.96.595 1.7.703 2.215zM10.494 8c.517 0 .914-.2 1.191-.598.21-.289.315-.75.315-1.382V3.969c0-.625-.105-1.082-.315-1.371-.277-.399-.674-.598-1.19-.598-.503 0-.896.2-1.18.598-.21.289-.315.746-.315 1.37V6.02c0 .624.105 1.085.315 1.382.284.399.677.598 1.18.598zm-.483-4.242c0-.54.161-.809.483-.809.323 0 .483.27.483.809v2.46c0 .548-.16.82-.483.82-.322 0-.483-.272-.483-.82v-2.46zM13.77 8c.383 0 .778-.245 1.184-.735v.652H16V2h-1.046v4.518c-.23.34-.448.51-.655.51-.138 0-.219-.087-.242-.261a3.198 3.198 0 01-.011-.415V2H13v4.672c0 .403.03.7.092.89.1.292.326.438.678.438z"/></symbol>
<symbol id="i-zipper" viewBox="0 0 20 20" xmlns="http://www.w3.org/2000/svg"><path clip-rule="evenodd" d="M10.806 2.5l-6.847 9.167H10L9.194 17.5l6.848-9.167H10l.806-5.833z"/></symbol>
</svg>